<svg xmlns="http://www.w3.org/2000/svg" xmlns:xlink="http://www.w3.org/1999/xlink" width="240" zoomAndPan="magnify" viewBox="0 0 180 55.5" height="74" preserveAspectRatio="xMidYMid meet" version="1.0"><defs><g/><clipPath id="3f955b0b8a"><path d="M 11.914062 8.082031 L 31.832031 8.082031 L 31.832031 28.003906 L 11.914062 28.003906 Z M 11.914062 8.082031 " clip-rule="nonzero"/></clipPath><clipPath id="152248481c"><path d="M 21.875 8.082031 C 16.371094 8.082031 11.914062 12.542969 11.914062 18.042969 C 11.914062 23.542969 16.371094 28.003906 21.875 28.003906 C 27.375 28.003906 31.832031 23.542969 31.832031 18.042969 C 31.832031 12.542969 27.375 8.082031 21.875 8.082031 " clip-rule="nonzero"/></clipPath><clipPath id="25fd79b198"><path d="M 5.933594 0.476562 L 39.511719 0.476562 L 39.511719 46.46875 L 5.933594 46.46875 Z M 5.933594 0.476562 " clip-rule="nonzero"/></clipPath></defs><g clip-path="url(#3f955b0b8a)"><g clip-path="url(#152248481c)"><path fill="#ffffff" d="M 11.914062 8.082031 L 31.832031 8.082031 L 31.832031 28.003906 L 11.914062 28.003906 Z M 11.914062 8.082031 " fill-opacity="1" fill-rule="nonzero"/></g></g><g fill="#ffffff" fill-opacity="1"><g transform="translate(39.442468, 46.133992)"><g><path d="M 5.3125 0.3125 C 4.3125 0.3125 3.535156 0.0390625 2.984375 -0.5 C 2.441406 -1.050781 2.171875 -1.835938 2.171875 -2.859375 L 2.171875 -20.828125 C 2.171875 -21.847656 2.441406 -22.628906 2.984375 -23.171875 C 3.535156 -23.710938 4.320312 -23.984375 5.34375 -23.984375 L 13.71875 -23.984375 C 16.4375 -23.984375 18.535156 -23.285156 20.015625 -21.890625 C 21.503906 -20.503906 22.25 -18.582031 22.25 -16.125 C 22.25 -13.675781 21.503906 -11.753906 20.015625 -10.359375 C 18.535156 -8.960938 16.4375 -8.265625 13.71875 -8.265625 L 8.4375 -8.265625 L 8.4375 -2.859375 C 8.4375 -1.835938 8.171875 -1.050781 7.640625 -0.5 C 7.109375 0.0390625 6.332031 0.3125 5.3125 0.3125 Z M 8.4375 -13.0625 L 12.625 -13.0625 C 15.070312 -13.0625 16.296875 -14.082031 16.296875 -16.125 C 16.296875 -18.164062 15.070312 -19.1875 12.625 -19.1875 L 8.4375 -19.1875 Z M 8.4375 -13.0625 "/></g></g></g><g fill="#ffffff" fill-opacity="1"><g transform="translate(62.446645, 46.133992)"><g><path d="M 10.890625 0.375 C 8.847656 0.375 7.082031 0.0195312 5.59375 -0.6875 C 4.113281 -1.40625 2.972656 -2.421875 2.171875 -3.734375 C 1.378906 -5.054688 0.984375 -6.613281 0.984375 -8.40625 C 0.984375 -10.101562 1.363281 -11.609375 2.125 -12.921875 C 2.882812 -14.242188 3.925781 -15.273438 5.25 -16.015625 C 6.582031 -16.753906 8.097656 -17.125 9.796875 -17.125 C 11.472656 -17.125 12.929688 -16.769531 14.171875 -16.0625 C 15.410156 -15.351562 16.363281 -14.347656 17.03125 -13.046875 C 17.695312 -11.742188 18.03125 -10.21875 18.03125 -8.46875 C 18.03125 -7.582031 17.507812 -7.140625 16.46875 -7.140625 L 6.765625 -7.140625 C 6.972656 -6.054688 7.425781 -5.273438 8.125 -4.796875 C 8.832031 -4.316406 9.8125 -4.078125 11.0625 -4.078125 C 11.539062 -4.078125 12.109375 -4.132812 12.765625 -4.25 C 13.421875 -4.363281 14.046875 -4.546875 14.640625 -4.796875 C 15.359375 -5.066406 15.96875 -5.070312 16.46875 -4.8125 C 16.96875 -4.550781 17.300781 -4.15625 17.46875 -3.625 C 17.644531 -3.09375 17.625 -2.546875 17.40625 -1.984375 C 17.1875 -1.429688 16.757812 -1.007812 16.125 -0.71875 C 15.332031 -0.332031 14.488281 -0.0546875 13.59375 0.109375 C 12.695312 0.285156 11.796875 0.375 10.890625 0.375 Z M 10.078125 -13.203125 C 9.171875 -13.203125 8.425781 -12.929688 7.84375 -12.390625 C 7.257812 -11.847656 6.890625 -11.050781 6.734375 -10 L 13.0625 -10 C 13 -11.070312 12.710938 -11.875 12.203125 -12.40625 C 11.691406 -12.9375 10.984375 -13.203125 10.078125 -13.203125 Z M 10.078125 -13.203125 "/></g></g></g><g fill="#ffffff" fill-opacity="1"><g transform="translate(81.333212, 46.133992)"><g><path d="M 10.546875 0.375 C 8.003906 0.375 6.117188 -0.210938 4.890625 -1.390625 C 3.671875 -2.578125 3.0625 -4.359375 3.0625 -6.734375 L 3.0625 -12.28125 L 1.90625 -12.28125 C 0.382812 -12.28125 -0.375 -13.03125 -0.375 -14.53125 C -0.375 -16.007812 0.382812 -16.75 1.90625 -16.75 L 3.0625 -16.75 L 3.0625 -18.859375 C 3.0625 -19.847656 3.320312 -20.601562 3.84375 -21.125 C 4.363281 -21.65625 5.113281 -21.921875 6.09375 -21.921875 C 8.113281 -21.921875 9.125 -20.898438 9.125 -18.859375 L 9.125 -16.75 L 11.90625 -16.75 C 13.445312 -16.75 14.21875 -16.007812 14.21875 -14.53125 C 14.21875 -13.03125 13.445312 -12.28125 11.90625 -12.28125 L 9.125 -12.28125 L 9.125 -6.9375 C 9.125 -5.300781 9.953125 -4.484375 11.609375 -4.484375 C 11.921875 -4.484375 12.222656 -4.519531 12.515625 -4.59375 C 12.816406 -4.664062 13.09375 -4.703125 13.34375 -4.703125 C 13.707031 -4.722656 14 -4.613281 14.21875 -4.375 C 14.445312 -4.132812 14.5625 -3.59375 14.5625 -2.75 C 14.5625 -2.070312 14.457031 -1.5 14.25 -1.03125 C 14.050781 -0.570312 13.691406 -0.238281 13.171875 -0.03125 C 12.847656 0.0820312 12.414062 0.175781 11.875 0.25 C 11.332031 0.332031 10.890625 0.375 10.546875 0.375 Z M 10.546875 0.375 "/></g></g></g><g fill="#ffffff" fill-opacity="1"><g transform="translate(95.829927, 46.133992)"><g><path d="M 11.09375 0.375 C 9.707031 0.375 8.28125 0.234375 6.8125 -0.046875 C 5.351562 -0.328125 4.101562 -0.734375 3.0625 -1.265625 C 2.445312 -1.554688 2.015625 -1.953125 1.765625 -2.453125 C 1.515625 -2.953125 1.421875 -3.46875 1.484375 -4 C 1.554688 -4.53125 1.75 -5.003906 2.0625 -5.421875 C 2.382812 -5.847656 2.804688 -6.132812 3.328125 -6.28125 C 3.859375 -6.425781 4.453125 -6.351562 5.109375 -6.0625 C 5.960938 -5.625 6.9375 -5.296875 8.03125 -5.078125 C 9.125 -4.867188 10.144531 -4.765625 11.09375 -4.765625 C 12.59375 -4.765625 13.640625 -4.960938 14.234375 -5.359375 C 14.835938 -5.753906 15.140625 -6.25 15.140625 -6.84375 C 15.140625 -7.363281 14.929688 -7.78125 14.515625 -8.09375 C 14.097656 -8.414062 13.351562 -8.691406 12.28125 -8.921875 L 8.296875 -9.765625 C 3.992188 -10.691406 1.84375 -12.953125 1.84375 -16.546875 C 1.84375 -18.109375 2.265625 -19.476562 3.109375 -20.65625 C 3.960938 -21.832031 5.148438 -22.742188 6.671875 -23.390625 C 8.191406 -24.035156 9.960938 -24.359375 11.984375 -24.359375 C 13.160156 -24.359375 14.351562 -24.226562 15.5625 -23.96875 C 16.78125 -23.707031 17.832031 -23.316406 18.71875 -22.796875 C 19.394531 -22.429688 19.820312 -21.9375 20 -21.3125 C 20.1875 -20.695312 20.164062 -20.09375 19.9375 -19.5 C 19.71875 -18.90625 19.316406 -18.472656 18.734375 -18.203125 C 18.148438 -17.929688 17.421875 -17.976562 16.546875 -18.34375 C 15.859375 -18.632812 15.101562 -18.851562 14.28125 -19 C 13.46875 -19.15625 12.675781 -19.234375 11.90625 -19.234375 C 10.632812 -19.234375 9.660156 -19.007812 8.984375 -18.5625 C 8.304688 -18.125 7.96875 -17.550781 7.96875 -16.84375 C 7.96875 -16.34375 8.171875 -15.929688 8.578125 -15.609375 C 8.984375 -15.296875 9.707031 -15.023438 10.75 -14.796875 L 14.703125 -13.953125 C 19.078125 -13.023438 21.265625 -10.820312 21.265625 -7.34375 C 21.265625 -5.78125 20.84375 -4.421875 20 -3.265625 C 19.164062 -2.109375 17.988281 -1.210938 16.46875 -0.578125 C 14.945312 0.0546875 13.15625 0.375 11.09375 0.375 Z M 11.09375 0.375 "/></g></g></g><g fill="#ffffff" fill-opacity="1"><g transform="translate(117.983354, 46.133992)"><g><path d="M 10.546875 0.375 C 8.003906 0.375 6.117188 -0.210938 4.890625 -1.390625 C 3.671875 -2.578125 3.0625 -4.359375 3.0625 -6.734375 L 3.0625 -12.28125 L 1.90625 -12.28125 C 0.382812 -12.28125 -0.375 -13.03125 -0.375 -14.53125 C -0.375 -16.007812 0.382812 -16.75 1.90625 -16.75 L 3.0625 -16.75 L 3.0625 -18.859375 C 3.0625 -19.847656 3.320312 -20.601562 3.84375 -21.125 C 4.363281 -21.65625 5.113281 -21.921875 6.09375 -21.921875 C 8.113281 -21.921875 9.125 -20.898438 9.125 -18.859375 L 9.125 -16.75 L 11.90625 -16.75 C 13.445312 -16.75 14.21875 -16.007812 14.21875 -14.53125 C 14.21875 -13.03125 13.445312 -12.28125 11.90625 -12.28125 L 9.125 -12.28125 L 9.125 -6.9375 C 9.125 -5.300781 9.953125 -4.484375 11.609375 -4.484375 C 11.921875 -4.484375 12.222656 -4.519531 12.515625 -4.59375 C 12.816406 -4.664062 13.09375 -4.703125 13.34375 -4.703125 C 13.707031 -4.722656 14 -4.613281 14.21875 -4.375 C 14.445312 -4.132812 14.5625 -3.59375 14.5625 -2.75 C 14.5625 -2.070312 14.457031 -1.5 14.25 -1.03125 C 14.050781 -0.570312 13.691406 -0.238281 13.171875 -0.03125 C 12.847656 0.0820312 12.414062 0.175781 11.875 0.25 C 11.332031 0.332031 10.890625 0.375 10.546875 0.375 Z M 10.546875 0.375 "/></g></g></g><g fill="#ffffff" fill-opacity="1"><g transform="translate(132.480069, 46.133992)"><g><path d="M 10.25 0.375 C 8.382812 0.375 6.757812 0.0234375 5.375 -0.671875 C 3.988281 -1.378906 2.910156 -2.390625 2.140625 -3.703125 C 1.367188 -5.023438 0.984375 -6.582031 0.984375 -8.375 C 0.984375 -10.1875 1.367188 -11.742188 2.140625 -13.046875 C 2.910156 -14.347656 3.988281 -15.351562 5.375 -16.0625 C 6.757812 -16.769531 8.382812 -17.125 10.25 -17.125 C 12.101562 -17.125 13.722656 -16.769531 15.109375 -16.0625 C 16.492188 -15.351562 17.566406 -14.347656 18.328125 -13.046875 C 19.085938 -11.742188 19.46875 -10.1875 19.46875 -8.375 C 19.46875 -6.582031 19.085938 -5.023438 18.328125 -3.703125 C 17.566406 -2.390625 16.492188 -1.378906 15.109375 -0.671875 C 13.722656 0.0234375 12.101562 0.375 10.25 0.375 Z M 10.25 -4.078125 C 11.15625 -4.078125 11.898438 -4.414062 12.484375 -5.09375 C 13.078125 -5.78125 13.375 -6.875 13.375 -8.375 C 13.375 -9.894531 13.078125 -10.988281 12.484375 -11.65625 C 11.898438 -12.320312 11.15625 -12.65625 10.25 -12.65625 C 9.3125 -12.65625 8.546875 -12.320312 7.953125 -11.65625 C 7.367188 -10.988281 7.078125 -9.894531 7.078125 -8.375 C 7.078125 -6.875 7.367188 -5.78125 7.953125 -5.09375 C 8.546875 -4.414062 9.3125 -4.078125 10.25 -4.078125 Z M 10.25 -4.078125 "/></g></g></g><g fill="#ffffff" fill-opacity="1"><g transform="translate(152.96604, 46.133992)"><g><path d="M 4.765625 6.4375 C 2.765625 6.4375 1.765625 5.414062 1.765625 3.375 L 1.765625 -14.015625 C 1.765625 -16.035156 2.753906 -17.046875 4.734375 -17.046875 C 6.523438 -17.046875 7.507812 -16.207031 7.6875 -14.53125 C 8.144531 -15.320312 8.832031 -15.953125 9.75 -16.421875 C 10.664062 -16.890625 11.679688 -17.125 12.796875 -17.125 C 14.222656 -17.125 15.484375 -16.769531 16.578125 -16.0625 C 17.679688 -15.351562 18.546875 -14.347656 19.171875 -13.046875 C 19.796875 -11.742188 20.109375 -10.1875 20.109375 -8.375 C 20.109375 -6.582031 19.800781 -5.023438 19.1875 -3.703125 C 18.582031 -2.390625 17.726562 -1.378906 16.625 -0.671875 C 15.519531 0.0234375 14.242188 0.375 12.796875 0.375 C 11.753906 0.375 10.785156 0.160156 9.890625 -0.265625 C 8.992188 -0.703125 8.304688 -1.285156 7.828125 -2.015625 L 7.828125 3.375 C 7.828125 4.363281 7.5625 5.117188 7.03125 5.640625 C 6.5 6.171875 5.742188 6.4375 4.765625 6.4375 Z M 10.890625 -4.078125 C 11.796875 -4.078125 12.539062 -4.414062 13.125 -5.09375 C 13.71875 -5.78125 14.015625 -6.875 14.015625 -8.375 C 14.015625 -9.894531 13.71875 -10.988281 13.125 -11.65625 C 12.539062 -12.320312 11.796875 -12.65625 10.890625 -12.65625 C 9.960938 -12.65625 9.203125 -12.320312 8.609375 -11.65625 C 8.015625 -10.988281 7.71875 -9.894531 7.71875 -8.375 C 7.71875 -6.875 8.015625 -5.78125 8.609375 -5.09375 C 9.203125 -4.414062 9.960938 -4.078125 10.890625 -4.078125 Z M 10.890625 -4.078125 "/></g></g></g><g clip-path="url(#25fd79b198)"><path fill="#f39531" d="M 20.023438 37.886719 C 19.367188 35.984375 18.164062 34.316406 16.566406 33.082031 L 12.628906 30.050781 C 8.589844 26.9375 6.136719 22.214844 5.925781 17.140625 C 5.925781 7.9375 13.441406 0.476562 22.710938 0.476562 C 31.980469 0.476562 39.496094 7.9375 39.496094 17.140625 C 39.285156 22.214844 36.832031 26.9375 32.792969 30.050781 L 28.855469 33.082031 C 27.257812 34.316406 26.054688 35.984375 25.398438 37.886719 L 24.933594 39.226562 C 24.609375 40.171875 23.714844 40.804688 22.710938 40.804688 C 21.707031 40.804688 20.8125 40.171875 20.488281 39.226562 Z M 22.710938 46.46875 C 19.003906 46.46875 15.996094 46.023438 15.996094 45.46875 C 15.996094 44.917969 19.003906 44.46875 22.710938 44.46875 C 26.417969 44.46875 29.425781 44.917969 29.425781 45.46875 C 29.425781 46.023438 26.417969 46.46875 22.710938 46.46875 Z M 20.054688 15.714844 C 21.3125 15.714844 22.300781 14.34375 22.300781 12.59375 C 22.300781 10.847656 21.3125 9.476562 20.054688 9.476562 C 18.796875 9.476562 17.8125 10.847656 17.8125 12.59375 C 17.8125 14.34375 18.796875 15.714844 20.054688 15.714844 Z M 14.632812 17.613281 C 15.105469 18.625 15.949219 19.277344 16.789062 19.277344 C 17.007812 19.277344 17.214844 19.234375 17.410156 19.144531 C 18.363281 18.703125 18.640625 17.34375 18.039062 16.046875 C 17.570312 15.03125 16.726562 14.378906 15.886719 14.378906 C 15.667969 14.378906 15.460938 14.421875 15.265625 14.511719 C 14.3125 14.949219 14.035156 16.3125 14.632812 17.613281 Z M 25.367188 15.714844 C 26.625 15.714844 27.609375 14.34375 27.609375 12.59375 C 27.609375 10.847656 26.625 9.476562 25.367188 9.476562 C 24.105469 9.476562 23.121094 10.847656 23.121094 12.59375 C 23.121094 14.34375 24.105469 15.714844 25.367188 15.714844 Z M 27.382812 16.042969 C 26.78125 17.34375 27.058594 18.703125 28.011719 19.144531 C 28.207031 19.234375 28.414062 19.277344 28.632812 19.277344 C 29.472656 19.277344 30.316406 18.625 30.789062 17.613281 C 31.386719 16.3125 31.109375 14.953125 30.15625 14.511719 C 29.964844 14.421875 29.753906 14.378906 29.535156 14.378906 C 28.695312 14.378906 27.851562 15.03125 27.382812 16.042969 Z M 17.722656 20.652344 C 17.058594 21.699219 16.652344 22.382812 16.652344 23.164062 C 16.652344 24.59375 17.691406 25.515625 19.304688 25.515625 L 19.339844 25.515625 C 19.929688 25.515625 20.355469 25.484375 21.242188 25.023438 C 21.246094 25.019531 21.253906 25.015625 21.257812 25.011719 C 21.265625 25.007812 21.984375 24.613281 22.667969 24.65625 C 22.695312 24.660156 22.726562 24.660156 22.753906 24.65625 C 23.4375 24.613281 24.15625 25.007812 24.160156 25.011719 C 24.167969 25.015625 24.171875 25.019531 24.179688 25.023438 C 25.066406 25.484375 25.492188 25.515625 26.082031 25.515625 L 26.117188 25.515625 C 27.730469 25.515625 28.769531 24.59375 28.769531 23.164062 C 28.769531 22.382812 28.363281 21.699219 27.699219 20.652344 C 27.605469 20.5 26.371094 18.480469 25.253906 17.472656 C 24.3125 16.628906 22.871094 16.605469 22.710938 16.605469 C 22.550781 16.605469 21.109375 16.628906 20.167969 17.472656 C 19.046875 18.480469 17.816406 20.5 17.722656 20.652344 Z M 17.722656 20.652344 " fill-opacity="1" fill-rule="nonzero"/></g></svg>