<svg xmlns="http://www.w3.org/2000/svg" xmlns:xlink="http://www.w3.org/1999/xlink" width="64" zoomAndPan="magnify" viewBox="0 0 48 55.5" height="74" preserveAspectRatio="xMidYMid meet" version="1.0"><defs><clipPath id="33260130dc"><path d="M 11.660156 8.472656 L 37.230469 8.472656 L 37.230469 34.042969 L 11.660156 34.042969 Z M 11.660156 8.472656 " clip-rule="nonzero"/></clipPath><clipPath id="a589202ebc"><path d="M 24.445312 8.472656 C 17.386719 8.472656 11.660156 14.199219 11.660156 21.257812 C 11.660156 28.320312 17.386719 34.042969 24.445312 34.042969 C 31.507812 34.042969 37.230469 28.320312 37.230469 21.257812 C 37.230469 14.199219 31.507812 8.472656 24.445312 8.472656 " clip-rule="nonzero"/></clipPath><clipPath id="3c64c1fc97"><path d="M 4.0625 0 L 44.199219 0 L 44.199219 55.003906 L 4.0625 55.003906 Z M 4.0625 0 " clip-rule="nonzero"/></clipPath></defs><g clip-path="url(#33260130dc)"><g clip-path="url(#a589202ebc)"><path fill="#ffffff" d="M 11.660156 8.472656 L 37.230469 8.472656 L 37.230469 34.042969 L 11.660156 34.042969 Z M 11.660156 8.472656 " fill-opacity="1" fill-rule="nonzero"/></g></g><g clip-path="url(#3c64c1fc97)"><path fill="#f39531" d="M 20.90625 44.742188 C 20.121094 42.464844 18.683594 40.46875 16.769531 38.992188 L 12.070312 35.367188 C 7.238281 31.644531 4.308594 25.996094 4.054688 19.929688 C 4.054688 8.921875 13.035156 0 24.117188 0 C 35.195312 0 44.179688 8.921875 44.179688 19.929688 C 43.925781 25.996094 40.992188 31.644531 36.164062 35.367188 L 31.460938 38.992188 C 29.550781 40.46875 28.113281 42.464844 27.328125 44.742188 L 26.773438 46.34375 C 26.382812 47.472656 25.316406 48.230469 24.117188 48.230469 C 22.917969 48.230469 21.847656 47.472656 21.460938 46.34375 Z M 24.117188 55.003906 C 19.683594 55.003906 16.089844 54.46875 16.089844 53.808594 C 16.089844 53.148438 19.683594 52.613281 24.117188 52.613281 C 28.546875 52.613281 32.140625 53.148438 32.140625 53.808594 C 32.140625 54.46875 28.546875 55.003906 24.117188 55.003906 Z M 20.941406 18.222656 C 22.445312 18.222656 23.625 16.582031 23.625 14.492188 C 23.625 12.398438 22.445312 10.761719 20.941406 10.761719 C 19.4375 10.761719 18.261719 12.398438 18.261719 14.492188 C 18.261719 16.582031 19.4375 18.222656 20.941406 18.222656 Z M 14.464844 20.492188 C 15.023438 21.703125 16.035156 22.484375 17.039062 22.484375 C 17.300781 22.484375 17.550781 22.429688 17.78125 22.324219 C 18.921875 21.796875 19.253906 20.171875 18.535156 18.617188 C 17.972656 17.40625 16.960938 16.625 15.960938 16.625 C 15.699219 16.625 15.449219 16.675781 15.214844 16.785156 C 14.078125 17.308594 13.746094 18.9375 14.464844 20.492188 Z M 27.289062 18.222656 C 28.792969 18.222656 29.972656 16.582031 29.972656 14.492188 C 29.972656 12.398438 28.792969 10.761719 27.289062 10.761719 C 25.785156 10.761719 24.605469 12.398438 24.605469 14.492188 C 24.605469 16.582031 25.785156 18.222656 27.289062 18.222656 Z M 29.699219 18.617188 C 28.980469 20.167969 29.308594 21.796875 30.453125 22.324219 C 30.683594 22.429688 30.933594 22.484375 31.195312 22.484375 C 32.199219 22.484375 33.207031 21.703125 33.769531 20.492188 C 34.488281 18.9375 34.15625 17.308594 33.015625 16.785156 C 32.785156 16.675781 32.535156 16.625 32.273438 16.625 C 31.269531 16.625 30.261719 17.40625 29.699219 18.617188 Z M 18.152344 24.128906 C 17.359375 25.378906 16.875 26.195312 16.875 27.132812 C 16.875 28.839844 18.117188 29.945312 20.042969 29.945312 L 20.085938 29.945312 C 20.792969 29.945312 21.300781 29.90625 22.359375 29.355469 C 22.367188 29.351562 22.375 29.347656 22.382812 29.34375 C 22.390625 29.339844 23.25 28.867188 24.066406 28.917969 C 24.097656 28.917969 24.132812 28.917969 24.167969 28.917969 C 24.984375 28.867188 25.84375 29.339844 25.847656 29.339844 C 25.855469 29.347656 25.863281 29.351562 25.871094 29.355469 C 26.933594 29.90625 27.441406 29.945312 28.148438 29.945312 L 28.1875 29.945312 C 30.113281 29.945312 31.359375 28.839844 31.359375 27.132812 C 31.359375 26.195312 30.871094 25.378906 30.078125 24.128906 C 29.96875 23.945312 28.492188 21.53125 27.152344 20.328125 C 26.027344 19.316406 24.308594 19.289062 24.117188 19.289062 C 23.925781 19.289062 22.203125 19.316406 21.078125 20.328125 C 19.738281 21.53125 18.265625 23.945312 18.152344 24.128906 Z M 18.152344 24.128906 " fill-opacity="1" fill-rule="nonzero"/></g></svg>